<?xml version="1.0" encoding="UTF-8" standalone="no"?>
<svg
   xmlns:dc="http://purl.org/dc/elements/1.1/"
   xmlns:cc="http://creativecommons.org/ns#"
   xmlns:rdf="http://www.w3.org/1999/02/22-rdf-syntax-ns#"
   xmlns:svg="http://www.w3.org/2000/svg"
   xmlns="http://www.w3.org/2000/svg"
   xmlns:sodipodi="http://sodipodi.sourceforge.net/DTD/sodipodi-0.dtd"
   xmlns:inkscape="http://www.inkscape.org/namespaces/inkscape"
   width="16"
   height="16"
   version="1.1"
   id="svg8"
   sodipodi:docname="weather-showers-symbolic.svg"
   inkscape:version="1.0.1 (3bc2e813f5, 2020-09-07)">
  <metadata
     id="metadata14">
    <rdf:RDF>
      <cc:Work
         rdf:about="">
        <dc:format>image/svg+xml</dc:format>
        <dc:type
           rdf:resource="http://purl.org/dc/dcmitype/StillImage" />
      </cc:Work>
    </rdf:RDF>
  </metadata>
  <defs
     id="defs12" />
  <sodipodi:namedview
     pagecolor="#ffffff"
     bordercolor="#666666"
     borderopacity="1"
     objecttolerance="10"
     gridtolerance="10"
     guidetolerance="10"
     inkscape:pageopacity="0"
     inkscape:pageshadow="2"
     inkscape:window-width="1440"
     inkscape:window-height="836"
     id="namedview10"
     showgrid="false"
     inkscape:zoom="45.9375"
     inkscape:cx="8.0066303"
     inkscape:cy="9.11752"
     inkscape:window-x="0"
     inkscape:window-y="0"
     inkscape:window-maximized="1"
     inkscape:current-layer="svg8" />
  <g
     id="g845">
    <path
       d="M 9.465,0 C 8.192,0 7.158,0.973 7.017,2.219 6.693,2.097 6.361,2 5.994,2 4.351,2 3.02,3.343 3.02,5 c 0,0.098 0.022,0.185 0.031,0.281 A 1.983,1.983 0 0 0 2.028,5 1.992,1.992 0 0 0 0.044,7 c 0,1.105 0.888,2 1.984,2 H 14.424 C 15.245,9 15.911,8.328 15.911,7.5 15.911,6.672 15.245,6 14.424,6 14.218,6 14.013,6.05 13.835,6.125 13.887,5.923 13.928,5.718 13.928,5.5 13.928,4.27 13.042,3.272 11.883,3.062 11.924,2.882 11.945,2.694 11.945,2.5 11.945,1.12 10.835,0 9.465,0 Z"
       style="color:#000000;fill:#9a9996;marker:none;fill-opacity:1"
       overflow="visible"
       id="path2" />
    <path
       d="m 2.49,9.992 a 0.496,0.496 0 0 0 -0.48,0.404 l -1,4.92 a 0.49647079,0.49647079 0 1 0 0.973,0.198 l 1,-4.918 A 0.496,0.496 0 0 0 2.49,9.992 Z M 4.494,9.996 A 0.496,0.496 0 0 0 4.014,10.4 l -1.002,4.916 a 0.49647079,0.49647079 0 1 0 0.973,0.198 L 4.987,10.6 A 0.496,0.496 0 0 0 4.494,9.996 Z m 2,-0.004 a 0.496,0.496 0 0 0 -0.48,0.404 l -1.002,4.92 a 0.49647079,0.49647079 0 1 0 0.973,0.198 L 6.987,10.596 A 0.496,0.496 0 0 0 6.494,9.992 Z m 2.002,0 a 0.496,0.496 0 0 0 -0.48,0.404 l -1.002,4.92 a 0.49647079,0.49647079 0 1 0 0.973,0.198 l 1,-4.918 A 0.496,0.496 0 0 0 8.497,9.992 Z m 2,0 a 0.496,0.496 0 0 0 -0.48,0.404 l -1,4.92 a 0.496,0.496 0 1 0 0.972,0.198 l 1,-4.918 A 0.496,0.496 0 0 0 10.496,9.992 Z m 2.002,0 a 0.496,0.496 0 0 0 -0.48,0.404 l -1,4.92 a 0.496,0.496 0 1 0 0.97,0.198 L 12.99,10.596 A 0.496,0.496 0 0 0 12.498,9.992 Z"
       style="color:#000000;line-height:normal;font-variant-ligatures:normal;font-variant-position:normal;font-variant-caps:normal;font-variant-numeric:normal;font-variant-alternates:normal;font-feature-settings:normal;text-indent:0;text-align:start;text-decoration:none;text-decoration-line:none;text-decoration-style:solid;text-decoration-color:#000000;text-transform:none;text-orientation:mixed;shape-padding:0;isolation:auto;mix-blend-mode:normal;fill:#3584e4;fill-opacity:1"
       font-weight="400"
       font-family="sans-serif"
       overflow="visible"
       id="path4" />
  </g>
</svg>
