<?xml version="1.0" encoding="UTF-8" standalone="no"?>
<svg
   xmlns:dc="http://purl.org/dc/elements/1.1/"
   xmlns:cc="http://creativecommons.org/ns#"
   xmlns:rdf="http://www.w3.org/1999/02/22-rdf-syntax-ns#"
   xmlns:svg="http://www.w3.org/2000/svg"
   xmlns="http://www.w3.org/2000/svg"
   xmlns:sodipodi="http://sodipodi.sourceforge.net/DTD/sodipodi-0.dtd"
   xmlns:inkscape="http://www.inkscape.org/namespaces/inkscape"
   width="16"
   height="16"
   version="1.1"
   id="svg16"
   sodipodi:docname="weather-windy-symbolic.svg"
   inkscape:version="1.0.1 (3bc2e813f5, 2020-09-07)">
  <metadata
     id="metadata22">
    <rdf:RDF>
      <cc:Work
         rdf:about="">
        <dc:format>image/svg+xml</dc:format>
        <dc:type
           rdf:resource="http://purl.org/dc/dcmitype/StillImage" />
      </cc:Work>
    </rdf:RDF>
  </metadata>
  <defs
     id="defs20" />
  <sodipodi:namedview
     pagecolor="#ffffff"
     bordercolor="#666666"
     borderopacity="1"
     objecttolerance="10"
     gridtolerance="10"
     guidetolerance="10"
     inkscape:pageopacity="0"
     inkscape:pageshadow="2"
     inkscape:window-width="1440"
     inkscape:window-height="836"
     id="namedview18"
     showgrid="false"
     inkscape:zoom="45.9375"
     inkscape:cx="8"
     inkscape:cy="8"
     inkscape:window-x="0"
     inkscape:window-y="0"
     inkscape:window-maximized="1"
     inkscape:current-layer="svg16" />
  <g
     id="g859">
    <path
       d="M 12.987,2.033 A 3.515,3.515 0 0 1 15.992,5.744 3.514,3.514 0 0 1 12.5,9 a 1,1 0 1 1 0,-2 c 0.798,0 1.44,-0.6 1.496,-1.395 A 1.488,1.488 0 0 0 12.709,4.014 1.487,1.487 0 0 0 11.033,5.188 1.0004671,1.0004671 0 1 1 9.076,4.771 3.513,3.513 0 0 1 12.986,2.033 Z"
       style="color:#000000;font-weight:400;line-height:normal;font-family:sans-serif;font-variant-ligatures:normal;font-variant-position:normal;font-variant-caps:normal;font-variant-numeric:normal;font-variant-alternates:normal;font-feature-settings:normal;text-indent:0;text-align:start;text-decoration:none;text-decoration-line:none;text-decoration-style:solid;text-decoration-color:#000000;text-transform:none;text-orientation:mixed;shape-padding:0;isolation:auto;mix-blend-mode:normal;fill:#99c1f1;fill-opacity:1"
       overflow="visible"
       id="path2" />
    <path
       d="M 0,7 V 9 H 12.5 V 7 Z"
       style="color:#000000;font-weight:400;line-height:normal;font-family:sans-serif;font-variant-ligatures:normal;font-variant-position:normal;font-variant-caps:normal;font-variant-numeric:normal;font-variant-alternates:normal;font-feature-settings:normal;text-indent:0;text-align:start;text-decoration:none;text-decoration-line:none;text-decoration-style:solid;text-decoration-color:#000000;text-transform:none;text-orientation:mixed;shape-padding:0;isolation:auto;mix-blend-mode:normal;fill:#99c1f1;fill-opacity:1"
       overflow="visible"
       fill-rule="evenodd"
       id="path4" />
    <path
       d="m 9.397,15.936 a 2.99,2.99 0 0 0 1.95,-0.254 3.01,3.01 0 0 0 1.573,-3.373 3.009,3.009 0 0 0 -2.918,-2.309 1,1 0 1 0 0,2 0.99,0.99 0 0 1 0.97,0.77 0.992,0.992 0 0 1 -0.523,1.125 0.986,0.986 0 0 1 -1.21,-0.252 1.0005475,1.0005475 0 1 0 -1.534,1.285 c 0.445,0.53 1.047,0.874 1.692,1.008 z"
       style="color:#000000;font-weight:400;line-height:normal;font-family:sans-serif;font-variant-ligatures:normal;font-variant-position:normal;font-variant-caps:normal;font-variant-numeric:normal;font-variant-alternates:normal;font-feature-settings:normal;text-indent:0;text-align:start;text-decoration:none;text-decoration-line:none;text-decoration-style:solid;text-decoration-color:#000000;text-transform:none;text-orientation:mixed;shape-padding:0;isolation:auto;mix-blend-mode:normal;fill:#99c1f1;fill-opacity:1"
       overflow="visible"
       id="path6" />
    <path
       d="m 0,10 v 2 h 10 v -2 z"
       style="color:#000000;font-weight:400;line-height:normal;font-family:sans-serif;font-variant-ligatures:normal;font-variant-position:normal;font-variant-caps:normal;font-variant-numeric:normal;font-variant-alternates:normal;font-feature-settings:normal;text-indent:0;text-align:start;text-decoration:none;text-decoration-line:none;text-decoration-style:solid;text-decoration-color:#000000;text-transform:none;text-orientation:mixed;shape-padding:0;isolation:auto;mix-blend-mode:normal;fill:#99c1f1;fill-opacity:1"
       overflow="visible"
       fill-rule="evenodd"
       id="path8" />
    <path
       d="m 5.14,1.023 c 0.533,-0.07 1.09,0.03 1.577,0.313 A 2.508,2.508 0 0 1 7.879,4.146 2.506,2.506 0 0 1 5.467,6 1,1 0 1 1 5.467,4 0.487,0.487 0 0 0 5.946,3.63 0.494,0.494 0 0 0 5.715,3.066 0.485,0.485 0 0 0 5.117,3.145 1.0002031,1.0002031 0 1 1 3.701,1.732 2.49,2.49 0 0 1 5.141,1.023 Z"
       style="color:#000000;font-weight:400;line-height:normal;font-family:sans-serif;font-variant-ligatures:normal;font-variant-position:normal;font-variant-caps:normal;font-variant-numeric:normal;font-variant-alternates:normal;font-feature-settings:normal;text-indent:0;text-align:start;text-decoration:none;text-decoration-line:none;text-decoration-style:solid;text-decoration-color:#000000;text-transform:none;text-orientation:mixed;shape-padding:0;isolation:auto;mix-blend-mode:normal;fill:#99c1f1;fill-opacity:1"
       overflow="visible"
       id="path10" />
    <path
       d="M 0,4 V 6 H 5.467 V 4 Z"
       style="color:#000000;font-weight:400;line-height:normal;font-family:sans-serif;font-variant-ligatures:normal;font-variant-position:normal;font-variant-caps:normal;font-variant-numeric:normal;font-variant-alternates:normal;font-feature-settings:normal;text-indent:0;text-align:start;text-decoration:none;text-decoration-line:none;text-decoration-style:solid;text-decoration-color:#000000;text-transform:none;text-orientation:mixed;shape-padding:0;isolation:auto;mix-blend-mode:normal;fill:#99c1f1;fill-opacity:1"
       overflow="visible"
       fill-rule="evenodd"
       id="path12" />
  </g>
</svg>
