<?xml version="1.0" encoding="UTF-8" standalone="no"?>
<svg
   xmlns:dc="http://purl.org/dc/elements/1.1/"
   xmlns:cc="http://creativecommons.org/ns#"
   xmlns:rdf="http://www.w3.org/1999/02/22-rdf-syntax-ns#"
   xmlns:svg="http://www.w3.org/2000/svg"
   xmlns="http://www.w3.org/2000/svg"
   xmlns:sodipodi="http://sodipodi.sourceforge.net/DTD/sodipodi-0.dtd"
   xmlns:inkscape="http://www.inkscape.org/namespaces/inkscape"
   width="16"
   height="16"
   version="1.1"
   id="svg6"
   sodipodi:docname="weather-severe-alert-symbolic.svg"
   inkscape:version="1.0.1 (3bc2e813f5, 2020-09-07)">
  <metadata
     id="metadata12">
    <rdf:RDF>
      <cc:Work
         rdf:about="">
        <dc:format>image/svg+xml</dc:format>
        <dc:type
           rdf:resource="http://purl.org/dc/dcmitype/StillImage" />
      </cc:Work>
    </rdf:RDF>
  </metadata>
  <defs
     id="defs10" />
  <sodipodi:namedview
     pagecolor="#ffffff"
     bordercolor="#666666"
     borderopacity="1"
     objecttolerance="10"
     gridtolerance="10"
     guidetolerance="10"
     inkscape:pageopacity="0"
     inkscape:pageshadow="2"
     inkscape:window-width="1440"
     inkscape:window-height="836"
     id="namedview8"
     showgrid="false"
     inkscape:zoom="45.9375"
     inkscape:cx="8"
     inkscape:cy="8"
     inkscape:window-x="0"
     inkscape:window-y="0"
     inkscape:window-maximized="1"
     inkscape:current-layer="svg6" />
  <g
     id="g843">
    <path
       d="M 9.5,2 A 2.49,2.49 0 0 0 7.031,4.219 C 6.704,4.097 6.37,4 6,4 A 3,3 0 0 0 3,7 C 3,7.098 3.022,7.185 3.031,7.281 A 2.014,2.014 0 0 0 2,7 2,2 0 1 0 2,11 H 7 V 8.875 C 7,7.865 7.865,7 8.875,7 h 5.062 a 2.499,2.499 0 0 0 -2,-1.938 A 2.5,2.5 0 0 0 9.5,2 Z"
       style="marker:none;fill:#5e5c64;fill-opacity:1"
       color="#000000"
       overflow="visible"
       fill="#2e3436"
       id="path2" />
    <path
       class="warning"
       d="M8.875 8A.863.863 0 008 8.875v6.25c0 .492.383.875.875.875h6.25a.863.863 0 00.875-.875v-6.25A.863.863 0 0015.125 8zM11 9h2v2.5s0 .5-.5.5h-1c-.5 0-.5-.5-.5-.5zm.5 4h1c.277 0 .5.223.5.5v1c0 .277-.223.5-.5.5h-1a.499.499 0 01-.5-.5v-1c0-.277.223-.5.5-.5z"
       style="marker:none"
       color="#bebebe"
       overflow="visible"
       fill="#f57900"
       id="path4" />
  </g>
</svg>
