<?xml version="1.0" encoding="UTF-8" standalone="no"?>
<svg
   xmlns:dc="http://purl.org/dc/elements/1.1/"
   xmlns:cc="http://creativecommons.org/ns#"
   xmlns:rdf="http://www.w3.org/1999/02/22-rdf-syntax-ns#"
   xmlns:svg="http://www.w3.org/2000/svg"
   xmlns="http://www.w3.org/2000/svg"
   xmlns:sodipodi="http://sodipodi.sourceforge.net/DTD/sodipodi-0.dtd"
   xmlns:inkscape="http://www.inkscape.org/namespaces/inkscape"
   width="16"
   height="16"
   version="1.1"
   id="svg8"
   sodipodi:docname="weather-clear-symbolic.svg"
   inkscape:version="1.0.1 (3bc2e813f5, 2020-09-07)">
  <metadata
     id="metadata14">
    <rdf:RDF>
      <cc:Work
         rdf:about="">
        <dc:format>image/svg+xml</dc:format>
        <dc:type
           rdf:resource="http://purl.org/dc/dcmitype/StillImage" />
      </cc:Work>
    </rdf:RDF>
  </metadata>
  <defs
     id="defs12" />
  <sodipodi:namedview
     pagecolor="#ffffff"
     bordercolor="#666666"
     borderopacity="1"
     objecttolerance="10"
     gridtolerance="10"
     guidetolerance="10"
     inkscape:pageopacity="0"
     inkscape:pageshadow="2"
     inkscape:window-width="1440"
     inkscape:window-height="836"
     id="namedview10"
     showgrid="false"
     inkscape:zoom="45.9375"
     inkscape:cx="8"
     inkscape:cy="8"
     inkscape:window-x="0"
     inkscape:window-y="0"
     inkscape:window-maximized="1"
     inkscape:current-layer="svg8" />
  <g
     id="g843">
    <path
       d="m 8,4.006 c -2.195,0 -4,1.805 -4,4 0,2.195 1.805,4 4,4 2.195,0 4,-1.805 4,-4 0,-2.195 -1.805,-4 -4,-4 z"
       style="line-height:normal;-inkscape-font-specification:Sans;font-variant-ligatures:normal;font-variant-position:normal;font-variant-caps:normal;font-variant-numeric:normal;font-variant-alternates:normal;font-feature-settings:normal;text-indent:0;text-align:start;text-decoration:none;text-decoration-line:none;text-decoration-style:solid;text-decoration-color:#000000;text-transform:none;text-orientation:mixed;shape-padding:0;isolation:auto;mix-blend-mode:normal;fill:#f6d32d;marker:none;fill-opacity:1"
       color="#bebebe"
       font-weight="400"
       font-family="Sans"
       overflow="visible"
       id="path2" />
    <path
       d="m 7.5,0 h 1 C 8.777,0 9,0.223 9,0.5 v 2 C 9,2.777 8.777,3 8.5,3 h -1 A 0.499,0.499 0 0 1 7,2.5 v -2 C 7,0.223 7.223,0 7.5,0 Z m 0,13 h 1 C 8.777,13 9,13.223 9,13.5 v 2 C 9,15.777 8.777,16 8.5,16 h -1 A 0.499,0.499 0 0 1 7,15.5 v -2 C 7,13.223 7.223,13 7.5,13 Z M 1.99,2.697 2.697,1.99 a 0.499,0.499 0 0 1 0.707,0 l 1.414,1.414 a 0.499,0.499 0 0 1 0,0.707 L 4.111,4.818 a 0.499,0.499 0 0 1 -0.707,0 L 1.99,3.404 a 0.499,0.499 0 0 1 0,-0.707 z m 9.192,9.193 0.707,-0.708 a 0.499,0.499 0 0 1 0.707,0 l 1.415,1.414 a 0.499,0.499 0 0 1 0,0.707 l -0.708,0.707 a 0.499,0.499 0 0 1 -0.707,0 l -1.414,-1.414 a 0.499,0.499 0 0 1 0,-0.707 z M 2.697,14.01 1.99,13.303 a 0.499,0.499 0 0 1 0,-0.707 l 1.414,-1.414 a 0.499,0.499 0 0 1 0.707,0 l 0.707,0.707 a 0.499,0.499 0 0 1 0,0.707 L 3.404,14.01 a 0.499,0.499 0 0 1 -0.707,0 z M 11.89,4.818 11.182,4.111 a 0.499,0.499 0 0 1 0,-0.707 L 12.596,1.99 a 0.499,0.499 0 0 1 0.708,0 l 0.707,0.707 a 0.499,0.499 0 0 1 0,0.707 l -1.415,1.414 a 0.499,0.499 0 0 1 -0.707,0 z M 16,7.5 v 1 C 16,8.777 15.777,9 15.5,9 h -2 A 0.499,0.499 0 0 1 13,8.5 v -1 C 13,7.223 13.223,7 13.5,7 h 2 C 15.777,7 16,7.223 16,7.5 Z m -13,0 v 1 C 3,8.777 2.777,9 2.5,9 h -2 A 0.499,0.499 0 0 1 0,8.5 v -1 C 0,7.223 0.223,7 0.5,7 h 2 C 2.777,7 3,7.223 3,7.5 Z"
       id="path4"
       style="fill:#f6d32d;fill-opacity:1" />
  </g>
</svg>
