<?xml version="1.0" encoding="UTF-8" standalone="no"?>
<svg
   xmlns:dc="http://purl.org/dc/elements/1.1/"
   xmlns:cc="http://creativecommons.org/ns#"
   xmlns:rdf="http://www.w3.org/1999/02/22-rdf-syntax-ns#"
   xmlns:svg="http://www.w3.org/2000/svg"
   xmlns="http://www.w3.org/2000/svg"
   xmlns:xlink="http://www.w3.org/1999/xlink"
   xmlns:sodipodi="http://sodipodi.sourceforge.net/DTD/sodipodi-0.dtd"
   xmlns:inkscape="http://www.inkscape.org/namespaces/inkscape"
   width="16"
   height="16"
   version="1.1"
   id="svg9"
   sodipodi:docname="weather-snow-symbolic.svg"
   inkscape:version="1.0.1 (3bc2e813f5, 2020-09-07)">
  <metadata
     id="metadata15">
    <rdf:RDF>
      <cc:Work
         rdf:about="">
        <dc:format>image/svg+xml</dc:format>
        <dc:type
           rdf:resource="http://purl.org/dc/dcmitype/StillImage" />
      </cc:Work>
    </rdf:RDF>
  </metadata>
  <defs
     id="defs13" />
  <sodipodi:namedview
     pagecolor="#ffffff"
     bordercolor="#666666"
     borderopacity="1"
     objecttolerance="10"
     gridtolerance="10"
     guidetolerance="10"
     inkscape:pageopacity="0"
     inkscape:pageshadow="2"
     inkscape:window-width="1440"
     inkscape:window-height="836"
     id="namedview11"
     showgrid="false"
     inkscape:zoom="45.9375"
     inkscape:cx="8"
     inkscape:cy="8"
     inkscape:window-x="0"
     inkscape:window-y="0"
     inkscape:window-maximized="1"
     inkscape:current-layer="svg9" />
  <g
     id="g846">
    <path
       id="a"
       d="M 7.492,0.492 A 0.5,0.5 0 0 0 7,1 V 2.533 L 5.748,1.816 A 0.5,0.5 0 1 0 5.252,2.684 l 1.748,1 v 8.683 l -1.746,0.987 a 0.5,0.5 0 1 0 0.492,0.87 L 7,13.516 V 15 a 0.5,0.5 0 1 0 1,0 v -1.484 l 1.254,0.709 A 0.50017622,0.50017622 0 1 0 9.746,13.354 L 8,12.367 V 3.684 l 1.748,-1 A 0.5,0.5 0 1 0 9.252,1.816 L 8,2.533 V 1 A 0.5,0.5 0 0 0 7.492,0.492 Z"
       style="line-height:normal;font-variant-ligatures:normal;font-variant-position:normal;font-variant-caps:normal;font-variant-numeric:normal;font-variant-alternates:normal;font-feature-settings:normal;text-indent:0;text-align:start;text-decoration:none;text-decoration-line:none;text-decoration-style:solid;text-decoration-color:#000000;text-transform:none;text-orientation:mixed;shape-padding:0;isolation:auto;mix-blend-mode:normal;marker:none;fill:#99c1f1;fill-opacity:1"
       color="#000000"
       font-weight="400"
       font-family="sans-serif"
       overflow="visible"
       fill="#2e3436"
       stroke-linecap="round" />
    <use
       height="100%"
       xlink:href="#a"
       transform="rotate(-60,7.5000045,8.0000041)"
       width="100%"
       id="use3"
       x="0"
       y="0" />
    <use
       height="100%"
       xlink:href="#a"
       transform="rotate(-120,7.4999982,7.9999997)"
       width="100%"
       id="use5"
       x="0"
       y="0" />
  </g>
</svg>
