<?xml version="1.0" encoding="UTF-8" standalone="no"?>
<svg
   xmlns:dc="http://purl.org/dc/elements/1.1/"
   xmlns:cc="http://creativecommons.org/ns#"
   xmlns:rdf="http://www.w3.org/1999/02/22-rdf-syntax-ns#"
   xmlns:svg="http://www.w3.org/2000/svg"
   xmlns="http://www.w3.org/2000/svg"
   xmlns:sodipodi="http://sodipodi.sourceforge.net/DTD/sodipodi-0.dtd"
   xmlns:inkscape="http://www.inkscape.org/namespaces/inkscape"
   width="16"
   height="16"
   version="1.1"
   id="svg8"
   sodipodi:docname="weather-overcast-symbolic.svg"
   inkscape:version="1.0.1 (3bc2e813f5, 2020-09-07)">
  <metadata
     id="metadata14">
    <rdf:RDF>
      <cc:Work
         rdf:about="">
        <dc:format>image/svg+xml</dc:format>
        <dc:type
           rdf:resource="http://purl.org/dc/dcmitype/StillImage" />
      </cc:Work>
    </rdf:RDF>
  </metadata>
  <defs
     id="defs12" />
  <sodipodi:namedview
     pagecolor="#ffffff"
     bordercolor="#666666"
     borderopacity="1"
     objecttolerance="10"
     gridtolerance="10"
     guidetolerance="10"
     inkscape:pageopacity="0"
     inkscape:pageshadow="2"
     inkscape:window-width="1440"
     inkscape:window-height="836"
     id="namedview10"
     showgrid="false"
     inkscape:zoom="45.9375"
     inkscape:cx="8"
     inkscape:cy="8"
     inkscape:window-x="0"
     inkscape:window-y="0"
     inkscape:window-maximized="1"
     inkscape:current-layer="svg8" />
  <g
     id="g843">
    <path
       d="M 8.5,9 A 2.5,2.5 0 0 0 6,11.5 c 0,0.218 0.041,0.423 0.094,0.625 A 1.549,1.549 0 0 0 5.5,12 a 1.5,1.5 0 1 0 0,3 h 8 a 1.5,1.5 0 1 0 0,-3 2,2 0 0 0 -2,-2 c -0.316,0 -0.61,0.088 -0.875,0.219 A 2.47,2.47 0 0 0 8.5,9 Z"
       style="color:#000000;fill:#deddda;marker:none;fill-opacity:1"
       overflow="visible"
       id="path2" />
    <path
       d="M 9.5,2 A 2.49,2.49 0 0 0 7.031,4.219 C 6.705,4.097 6.37,4 6.001,4 a 3,3 0 0 0 -3,3 c 0,0.098 0.021,0.185 0.03,0.281 A 2.013,2.013 0 0 0 2.001,7 a 2,2 0 1 0 0,4 H 5.1 C 5.35,9.32 6.755,8 8.5,8 9.48,8 10.286,8.49 10.916,9.143 11.115,9.096 11.277,9 11.5,9 c 1.262,0 2.19,0.874 2.604,2 H 14.5 a 1.5,1.5 0 1 0 0,-3 C 14.293,8 14.086,8.05 13.906,8.125 A 2.44,2.44 0 0 0 14,7.5 C 14,6.27 13.107,5.272 11.938,5.063 A 2.5,2.5 0 0 0 9.5,2 Z m -1,8 C 7.837,10 7.293,10.414 7.09,11 H 9.928 L 9.768,10.734 C 9.498,10.285 9.052,10 8.5,10 Z"
       style="color:#000000;fill:#deddda;marker:none;fill-opacity:1"
       overflow="visible"
       id="path4" />
  </g>
</svg>
