<?xml version="1.0" encoding="UTF-8" standalone="no"?>
<svg
   xmlns:dc="http://purl.org/dc/elements/1.1/"
   xmlns:cc="http://creativecommons.org/ns#"
   xmlns:rdf="http://www.w3.org/1999/02/22-rdf-syntax-ns#"
   xmlns:svg="http://www.w3.org/2000/svg"
   xmlns="http://www.w3.org/2000/svg"
   xmlns:sodipodi="http://sodipodi.sourceforge.net/DTD/sodipodi-0.dtd"
   xmlns:inkscape="http://www.inkscape.org/namespaces/inkscape"
   width="16"
   height="16"
   version="1.1"
   id="svg4"
   sodipodi:docname="weather-tornado-symbolic.svg"
   inkscape:version="1.0.1 (3bc2e813f5, 2020-09-07)">
  <metadata
     id="metadata10">
    <rdf:RDF>
      <cc:Work
         rdf:about="">
        <dc:format>image/svg+xml</dc:format>
        <dc:type
           rdf:resource="http://purl.org/dc/dcmitype/StillImage" />
      </cc:Work>
    </rdf:RDF>
  </metadata>
  <defs
     id="defs8" />
  <sodipodi:namedview
     pagecolor="#ffffff"
     bordercolor="#666666"
     borderopacity="1"
     objecttolerance="10"
     gridtolerance="10"
     guidetolerance="10"
     inkscape:pageopacity="0"
     inkscape:pageshadow="2"
     inkscape:window-width="1440"
     inkscape:window-height="836"
     id="namedview6"
     showgrid="false"
     inkscape:zoom="45.9375"
     inkscape:cx="8"
     inkscape:cy="6.2585034"
     inkscape:window-x="0"
     inkscape:window-y="0"
     inkscape:window-maximized="1"
     inkscape:current-layer="svg4" />
  <g
     id="g840">
    <path
       d="m 1.975,0.994 c -1.341,0 -1.341,2.012 0,2.012 h 0.287 c 0.128,0 0.222,0.114 0.03,0.227 C 1.659,3.771 1.939,5.02 2.975,5.006 h 2.263 c 0.207,0.009 0.15,0.152 0.084,0.208 -0.52,0.42 -0.483,1.304 0.12,1.653 0.09,0.047 0.054,0.123 -0.04,0.123 H 4.98 c -1.398,-0.052 -1.398,2.072 0,2.02 h 1.299 c 0.108,0 0.18,0.125 0.036,0.208 -0.52,0.432 -0.467,1.315 0.138,1.663 0.177,0.102 0.067,0.184 -0.014,0.248 -0.598,0.353 -0.649,1.24 -0.11,1.664 0.125,0.098 0.05,0.186 -0.046,0.186 H 5.99 c -1.362,0 -1.362,2.042 0,2.042 H 7.01 C 8.026,15.04 8.357,13.818 7.734,13.251 7.605,13.094 7.703,13.016 7.773,13.016 h 1.242 c 1.354,0 1.354,-2.032 0,-2.032 H 8.725 C 8.583,10.984 8.572,10.879 8.649,10.811 9.152,10.431 9.172,9.652 8.713,9.24 8.563,9.09 8.638,9.01 8.753,9.01 H 9.021 C 10.028,9.014 10.328,7.815 9.729,7.258 9.615,7.145 9.641,7.01 9.765,7.01 h 1.256 C 12.062,7.025 12.348,5.76 11.697,5.223 11.615,5.141 11.616,5.006 11.769,5.006 h 1.256 c 1.34,0 1.34,-2.012 0,-2.012 h -0.323 c -0.119,0 -0.154,-0.1 -0.068,-0.17 0.725,-0.502 0.464,-1.844 -0.61,-1.83 z"
       style="line-height:normal;font-variant-ligatures:normal;font-variant-position:normal;font-variant-caps:normal;font-variant-numeric:normal;font-variant-alternates:normal;font-feature-settings:normal;text-indent:0;text-align:start;text-decoration:none;text-decoration-line:none;text-decoration-style:solid;text-decoration-color:#000000;text-transform:none;text-orientation:mixed;white-space:normal;shape-padding:0;isolation:auto;mix-blend-mode:normal;solid-color:#000000;solid-opacity:1;marker:none;fill:#99c1f1;fill-opacity:1"
       color="#000000"
       font-weight="400"
       font-family="sans-serif"
       overflow="visible"
       fill="#2e3436"
       id="path2" />
  </g>
</svg>
