<?xml version="1.0" encoding="UTF-8" standalone="no"?>
<svg
   xmlns:dc="http://purl.org/dc/elements/1.1/"
   xmlns:cc="http://creativecommons.org/ns#"
   xmlns:rdf="http://www.w3.org/1999/02/22-rdf-syntax-ns#"
   xmlns:svg="http://www.w3.org/2000/svg"
   xmlns="http://www.w3.org/2000/svg"
   xmlns:sodipodi="http://sodipodi.sourceforge.net/DTD/sodipodi-0.dtd"
   xmlns:inkscape="http://www.inkscape.org/namespaces/inkscape"
   width="16.014"
   height="16"
   version="1.1"
   id="svg4"
   sodipodi:docname="weather-fog-symbolic.svg"
   inkscape:version="1.0.1 (3bc2e813f5, 2020-09-07)">
  <metadata
     id="metadata10">
    <rdf:RDF>
      <cc:Work
         rdf:about="">
        <dc:format>image/svg+xml</dc:format>
        <dc:type
           rdf:resource="http://purl.org/dc/dcmitype/StillImage" />
      </cc:Work>
    </rdf:RDF>
  </metadata>
  <defs
     id="defs8" />
  <sodipodi:namedview
     pagecolor="#ffffff"
     bordercolor="#666666"
     borderopacity="1"
     objecttolerance="10"
     gridtolerance="10"
     guidetolerance="10"
     inkscape:pageopacity="0"
     inkscape:pageshadow="2"
     inkscape:window-width="1440"
     inkscape:window-height="836"
     id="namedview6"
     showgrid="false"
     inkscape:zoom="45.9375"
     inkscape:cx="8.007"
     inkscape:cy="6.2585034"
     inkscape:window-x="0"
     inkscape:window-y="0"
     inkscape:window-maximized="1"
     inkscape:current-layer="svg4" />
  <g
     id="g840">
    <path
       d="m 3.33,0.994 c -0.623,0 -1,0.33 -1.273,0.594 C 1.784,1.853 1.575,2.131 1.381,2.381 A 6.48,6.48 0 0 1 0.897,2.963 C 0.783,3.073 0.775,2.994 1.012,2.994 A 0.9970005,0.9970005 0 1 0 1.01,4.988 C 1.634,4.988 2.013,4.659 2.286,4.395 2.558,4.13 2.766,3.852 2.959,3.602 A 7.56,7.56 0 0 1 3.331,3.158 c 0.108,0.121 0.223,0.253 0.37,0.444 0.194,0.25 0.402,0.53 0.674,0.794 0.273,0.265 0.652,0.594 1.276,0.594 0.623,0 1,-0.329 1.273,-0.594 C 7.197,4.132 7.407,3.854 7.6,3.604 A 7.64,7.64 0 0 1 7.97,3.16 c 0.107,0.121 0.223,0.253 0.37,0.444 0.194,0.25 0.401,0.53 0.674,0.794 0.273,0.265 0.652,0.594 1.276,0.594 0.623,0 1,-0.329 1.273,-0.594 0.273,-0.264 0.482,-0.543 0.676,-0.793 0.147,-0.19 0.26,-0.324 0.369,-0.445 0.108,0.121 0.223,0.254 0.371,0.445 0.193,0.25 0.401,0.53 0.674,0.795 0.273,0.265 0.652,0.594 1.275,0.594 a 0.997,0.997 0 1 0 0,-1.994 c 0.237,0 0.23,0.08 0.115,-0.031 A 6.55,6.55 0 0 1 14.557,2.387 C 14.364,2.137 14.156,1.857 13.883,1.592 13.611,1.327 13.233,0.998 12.61,0.998 c -0.624,0 -1.003,0.33 -1.276,0.594 -0.272,0.264 -0.48,0.543 -0.673,0.793 A 8.56,8.56 0 0 1 10.29,2.828 7.546,7.546 0 0 1 9.918,2.385 C 9.725,2.135 9.518,1.855 9.245,1.59 8.972,1.325 8.595,0.996 7.97,0.996 7.347,0.996 6.968,1.326 6.695,1.59 6.422,1.855 6.215,2.133 6.021,2.383 A 7.56,7.56 0 0 1 5.65,2.826 7.55,7.55 0 0 1 5.279,2.383 C 5.085,2.133 4.878,1.853 4.605,1.588 4.332,1.323 3.954,0.994 3.331,0.994 Z m 0,5.002 c -0.623,0 -1,0.33 -1.273,0.594 C 1.784,6.855 1.575,7.133 1.381,7.383 A 6.48,6.48 0 0 1 0.897,7.965 C 0.783,8.075 0.775,7.996 1.012,7.996 A 0.9970005,0.9970005 0 1 0 1.01,9.99 C 1.634,9.99 2.013,9.661 2.286,9.396 2.558,9.132 2.766,8.854 2.959,8.604 3.107,8.413 3.223,8.281 3.331,8.16 c 0.108,0.121 0.223,0.253 0.37,0.444 0.194,0.25 0.402,0.53 0.674,0.794 0.273,0.265 0.652,0.594 1.276,0.594 0.623,0 1,-0.329 1.273,-0.594 C 7.197,9.134 7.407,8.855 7.6,8.605 A 7.64,7.64 0 0 1 7.97,8.162 c 0.107,0.121 0.223,0.253 0.37,0.443 0.194,0.25 0.401,0.53 0.674,0.795 0.273,0.265 0.652,0.594 1.276,0.594 0.623,0 1,-0.329 1.273,-0.594 0.273,-0.264 0.482,-0.543 0.676,-0.793 0.147,-0.19 0.26,-0.324 0.369,-0.445 0.108,0.121 0.223,0.254 0.371,0.445 0.193,0.25 0.401,0.53 0.674,0.795 0.273,0.265 0.652,0.594 1.275,0.594 a 0.997,0.997 0 1 0 0,-1.994 c 0.237,0 0.23,0.08 0.115,-0.031 A 6.55,6.55 0 0 1 14.557,7.389 C 14.364,7.139 14.156,6.859 13.883,6.594 13.611,6.329 13.233,6 12.61,6 11.986,6 11.607,6.33 11.334,6.594 11.062,6.858 10.854,7.137 10.661,7.387 A 8.56,8.56 0 0 1 10.29,7.83 7.546,7.546 0 0 1 9.918,7.387 C 9.725,7.137 9.518,6.857 9.245,6.592 8.972,6.327 8.595,5.998 7.971,5.998 7.348,5.998 6.969,6.328 6.696,6.592 6.423,6.856 6.216,7.135 6.022,7.385 A 7.56,7.56 0 0 1 5.651,7.828 7.55,7.55 0 0 1 5.28,7.385 C 5.086,7.135 4.879,6.855 4.606,6.59 4.333,6.325 3.954,5.996 3.331,5.996 Z m 0,5.002 c -0.623,0 -1,0.33 -1.273,0.594 -0.273,0.264 -0.482,0.543 -0.676,0.793 -0.193,0.25 -0.37,0.471 -0.484,0.582 -0.114,0.11 -0.122,0.03 0.115,0.031 A 0.9970005,0.9970005 0 1 0 1.01,14.992 c 0.624,0 1.003,-0.329 1.276,-0.594 0.272,-0.264 0.48,-0.543 0.673,-0.793 0.148,-0.19 0.264,-0.322 0.372,-0.443 0.108,0.121 0.223,0.253 0.37,0.443 0.194,0.25 0.402,0.53 0.674,0.795 0.273,0.265 0.652,0.594 1.276,0.594 0.623,0 1,-0.329 1.273,-0.594 0.273,-0.264 0.483,-0.543 0.676,-0.793 a 7.3,7.3 0 0 1 0.37,-0.443 c 0.107,0.12 0.223,0.253 0.37,0.443 0.194,0.25 0.401,0.53 0.674,0.795 0.273,0.265 0.652,0.594 1.276,0.594 0.623,0 1,-0.33 1.273,-0.594 0.273,-0.264 0.482,-0.543 0.676,-0.793 0.147,-0.19 0.26,-0.324 0.369,-0.445 0.108,0.121 0.223,0.254 0.371,0.445 0.193,0.25 0.401,0.53 0.674,0.795 0.273,0.265 0.652,0.594 1.275,0.594 a 0.997,0.997 0 1 0 0,-1.994 c 0.237,0 0.23,0.08 0.115,-0.031 a 6.55,6.55 0 0 1 -0.486,-0.582 c -0.193,-0.25 -0.401,-0.529 -0.674,-0.793 -0.272,-0.265 -0.65,-0.596 -1.273,-0.596 -0.624,0 -1.003,0.329 -1.276,0.594 -0.272,0.264 -0.48,0.543 -0.673,0.793 A 8.56,8.56 0 0 1 10.29,12.832 7.545,7.545 0 0 1 9.918,12.389 C 9.725,12.139 9.518,11.859 9.245,11.594 8.972,11.329 8.595,11 7.97,11 7.347,11 6.968,11.33 6.695,11.594 6.422,11.858 6.215,12.137 6.021,12.387 5.874,12.577 5.758,12.709 5.65,12.83 A 7.549,7.549 0 0 1 5.279,12.387 C 5.085,12.137 4.878,11.857 4.605,11.592 4.332,11.327 3.953,10.998 3.33,10.998 Z"
       style="line-height:normal;font-variant-ligatures:normal;font-variant-position:normal;font-variant-caps:normal;font-variant-numeric:normal;font-variant-alternates:normal;font-feature-settings:normal;text-indent:0;text-align:start;text-decoration:none;text-decoration-line:none;text-decoration-style:solid;text-decoration-color:#000000;text-transform:none;text-orientation:mixed;shape-padding:0;isolation:auto;mix-blend-mode:normal;fill:#99bff0;fill-opacity:1"
       overflow="visible"
       opacity="0.5"
       color="#000000"
       font-weight="400"
       font-family="sans-serif"
       fill="#474747"
       id="path2" />
  </g>
</svg>
